<svg class="pottoCeramic" width="500" height="500" version="1.1" viewBox="0 0 132.29 132.29" xmlns="http://www.w3.org/2000/svg">
    <g transform="translate(108.91 -397.83)">
        <path fill="initial"
            d="m-81.612 397.83c-15.122 0-27.297 12.174-27.297 27.297v77.699c0 15.122 12.174 27.297 27.297 27.297h30.661c4.5367 0 8.1886-3.6525 8.1886-8.1892v-23.31c0-4.5367 3.6525-8.1886 8.1892-8.1886h30.66c15.122 0 27.297-12.174 27.297-27.297v-38.011c0-15.122-12.174-27.297-27.297-27.297zm0 10.054h77.699c9.5576 0 17.242 7.6848 17.242 17.242v35.441c0 10.976-8.8364 19.813-19.813 19.813h-28.09c-10.101 0-18.243 8.1411-18.243 18.243v13.256c0 4.5367-3.652 8.1892-8.1886 8.1892h-20.606c-9.5576 0-17.242-7.6848-17.242-17.242v-77.699c0-9.5576 7.6848-17.242 17.242-17.242z"
            stroke-width=".22038" />
    </g>
</svg>
