<?xml version="1.0" encoding="UTF-8"?>
<svg id="Layer_2" data-name="Layer 2" xmlns="http://www.w3.org/2000/svg" viewBox="0 0 622.67 622.67">
  <defs>
    <style>
      .cls-1 {
        fill: #ff5254;
      }
    </style>
  </defs>
  <path class="cls-1" d="M311.34,333.33c-7.73,0-14-6.27-14-14v-58.26c0-7.73,6.27-14,14-14s14,6.27,14,14v58.26c0,7.73-6.27,14-14,14ZM311.33,374.36c7.74,0,14.02-6.28,14.02-14.02s-6.28-14.02-14.02-14.02-14.02,6.28-14.02,14.02,6.28,14.02,14.02,14.02ZM431.38,311.33c0-66.2-53.85-120.05-120.05-120.05s-120.05,53.86-120.05,120.05,53.86,120.05,120.05,120.05,120.05-53.86,120.05-120.05ZM410.39,311.33c0,54.62-44.44,99.06-99.06,99.06s-99.06-44.44-99.06-99.06,44.44-99.06,99.06-99.06,99.06,44.44,99.06,99.06ZM284.02,0L0,284.02v30.49L314.51,0h-30.49ZM153.2,0L0,153.2v30.49L183.68,0h-30.49ZM166.82,248.03L25.13,389.72,0,414.85v30.49l154.98-154.98c1.98-14.86,6.02-29.07,11.84-42.32ZM397.18,178.98L576.16,0h-30.49l-168.13,168.13c6.82,3.16,13.38,6.79,19.63,10.85ZM168.13,377.55l-77.59,77.59L0,545.68v30.49l178.98-178.98c-4.06-6.25-7.69-12.81-10.85-19.63ZM22.37,0L0,22.37v30.49L52.85,0h-30.49ZM290.35,154.98L445.33,0h-30.49l-166.82,166.82c13.25-5.81,27.46-9.86,42.32-11.84ZM345.97,622.67l276.69-276.69v-30.49l-307.18,307.18h30.49ZM448.45,389.36l174.21-174.21v-30.49l-156.4,156.4c-3.29,17.26-9.39,33.53-17.82,48.3ZM446.51,229.99c3.89,6.45,7.33,13.2,10.28,20.21l165.88-165.88v-30.49l-176.16,176.16ZM476.8,622.67l145.87-145.87v-30.49l-176.35,176.35h30.49ZM341.06,466.27l-119.69,119.69-36.7,36.7h30.49l174.21-174.21c-14.77,8.42-31.04,14.52-48.3,17.82ZM607.63,622.67l15.04-15.04v-30.49l-45.53,45.53h30.49ZM229.99,446.51l-74.04,74.04-102.12,102.12h30.49l165.88-165.88c-7.01-2.95-13.76-6.39-20.21-10.28Z"/>
</svg>